<svg width="20" height="20" viewBox="0 0 20 20" fill="none" xmlns="http://www.w3.org/2000/svg">
<rect width="20" height="20" rx="10" fill="white"/>
<path d="M6.59403 5.42448C6.53818 5.39137 6.47456 5.37363 6.40964 5.37306C6.34471 5.37249 6.2808 5.38912 6.22438 5.42125C6.16796 5.45339 6.12105 5.49988 6.08842 5.55601C6.05578 5.61214 6.03859 5.67591 6.03857 5.74084V14.2591C6.03859 14.324 6.05578 14.3878 6.08842 14.4439C6.12105 14.5 6.16796 14.5465 6.22438 14.5787C6.2808 14.6108 6.34471 14.6274 6.40964 14.6269C6.47456 14.6263 6.53818 14.6085 6.59403 14.5754L13.7813 10.3163C13.8362 10.2837 13.8816 10.2374 13.9132 10.182C13.9448 10.1265 13.9614 10.0638 13.9614 9.99996C13.9614 9.93613 13.9448 9.8734 13.9132 9.81793C13.8816 9.76247 13.8362 9.71617 13.7813 9.6836L6.59403 5.42448Z" fill="#294DFF" stroke="#294DFF" stroke-width="1.5" stroke-linecap="round" stroke-linejoin="round"/>
</svg>
