<svg width="16" height="16" viewBox="0 0 16 16" fill="none" xmlns="http://www.w3.org/2000/svg">
<path d="M8.38571 1.13896C8.38618 1.22126 8.37041 1.30284 8.33929 1.37903C8.30817 1.45522 8.26232 1.52452 8.20436 1.58295L1.76969 8.01762L8.20436 14.4523C8.30681 14.5719 8.36034 14.7258 8.35426 14.8832C8.34818 15.0406 8.28294 15.1899 8.17157 15.3012C8.0602 15.4126 7.91091 15.4778 7.75353 15.4839C7.59615 15.49 7.44227 15.4365 7.32264 15.334L0 8.01762L7.32264 0.694976C7.41043 0.608926 7.52163 0.550657 7.64235 0.527454C7.76307 0.504252 7.88795 0.517143 8.00138 0.564518C8.11481 0.611892 8.21176 0.691648 8.28012 0.793817C8.34847 0.895986 8.3852 1.01604 8.38571 1.13896Z" fill="#7C7C7C"/>
<path d="M15.2661 1.13896C15.2666 1.22126 15.2508 1.30284 15.2197 1.37903C15.1885 1.45522 15.1427 1.52452 15.0847 1.58295L8.65006 8.01762L15.0847 14.4523C15.1872 14.5719 15.2407 14.7258 15.2346 14.8832C15.2286 15.0406 15.1633 15.1899 15.0519 15.3012C14.9406 15.4126 14.7913 15.4778 14.6339 15.4839C14.4765 15.49 14.3226 15.4365 14.203 15.334L6.88037 8.01762L14.203 0.694976C14.2908 0.608926 14.402 0.550657 14.5227 0.527454C14.6434 0.504252 14.7683 0.517143 14.8817 0.564518C14.9952 0.611892 15.0921 0.691648 15.1605 0.793817C15.2288 0.895986 15.2656 1.01604 15.2661 1.13896Z" fill="#7C7C7C"/>
</svg>
