<svg width="16" height="16" viewBox="0 0 16 16" fill="none" xmlns="http://www.w3.org/2000/svg">
<path d="M6.8804 14.861C6.87993 14.7787 6.8957 14.6972 6.92682 14.621C6.95794 14.5448 7.00379 14.4755 7.06175 14.4171L13.4964 7.98238L7.06175 1.54771C6.9593 1.42808 6.90577 1.2742 6.91185 1.11682C6.91793 0.959441 6.98317 0.810149 7.09454 0.698781C7.20591 0.587412 7.3552 0.52217 7.51258 0.516091C7.66996 0.510012 7.82384 0.563545 7.94347 0.665991L15.2661 7.98238L7.94347 15.305C7.85568 15.3911 7.74448 15.4493 7.62376 15.4725C7.50305 15.4957 7.37817 15.4829 7.26474 15.4355C7.15131 15.3881 7.05435 15.3084 6.986 15.2062C6.91764 15.104 6.88091 14.984 6.8804 14.861Z" fill="#7C7C7C"/>
<path d="M3.33786e-05 14.861C-0.000442505 14.7787 0.0153313 14.6972 0.0464506 14.621C0.07757 14.5448 0.123422 14.4755 0.181378 14.4171L6.61605 7.98238L0.181378 1.54771C0.0789328 1.42808 0.0254011 1.2742 0.0314808 1.11682C0.0375595 0.959441 0.102801 0.810149 0.21417 0.698781C0.325538 0.587412 0.474829 0.52217 0.632211 0.516091C0.789592 0.510012 0.943472 0.563545 1.0631 0.665991L8.38574 7.98238L1.0631 15.305C0.975312 15.3911 0.86411 15.4493 0.743393 15.4725C0.622676 15.4957 0.497797 15.4829 0.384365 15.4355C0.270934 15.3881 0.173982 15.3084 0.105625 15.2062C0.0372686 15.104 0.000541687 14.984 3.33786e-05 14.861Z" fill="#7C7C7C"/>
</svg>
